<svg id="eEj0CiJahNl1" xmlns="http://www.w3.org/2000/svg" xmlns:xlink="http://www.w3.org/1999/xlink" viewBox="0 0 1000 1000" shape-rendering="geometricPrecision" text-rendering="geometricPrecision" project-id="079c865a1f4f4ad8817d532f79d48d72" export-id="fd568c14c7b04c769dd8235c2b7c5cf4" cached="false"><g transform="matrix(-1 0 0 1.2 1035.688236-98.775998)"><path d="M172.67744,341.22017c1.27247,4.45262,7.31457,10.49472,11.28923,20.51208s5.88266,24.00933,5.7235,39.27361-2.38515,31.80023-6.99634,49.9266-11.60717,37.8423-10.8118,62.80632s9.38134,55.17393,33.70952,87.45168s64.39604,66.62164,114.00552,92.69797s108.75729,43.88428,171.24585,49.60809s128.31434-.63617,180.62633-14.46967s91.10786-35.13942,126.72462-61.5341s68.05265-57.87656,89.04099-90.63111s30.52831-66.78043,32.27765-90.47169-4.29265-37.04722-12.5606-44.52088-18.76192-9.06365-31.95965-6.04271-29.09768,10.65291-52.63044,23.69132-54.69667,31.48236-86.17946,48.6548-63.2827,33.07238-97.1504,43.56665-69.80159,15.58225-103.35131,15.42335-64.71363-5.56488-98.89955-17.96707-71.39179-31.80012-100.8076-52.4705-51.03974-42.6123-65.19128-61.37467-20.82952-34.34432-25.44077-48.81373-7.15525-27.82536-7.47342-38.95583s1.58982-20.03445-.15862-24.96382-32.11786-23.614862-32.11786-23.614862-31.00563,28.226482-30.8471,31.565022-3.33947,6.20053-2.06701,10.65315Z" fill="#fac400"/><path d="M218.819417,252.497199c-2.2262-.95424-13.227867,3.541048-18.952227,3.541048s-17.574638,1.743303-27.82617,4.885583-16.69398,7.075715-19.55664,11.92578-.4778,11.4474,2.86132,19.55664s7.47388,17.65008,11.44922,24.32813c3.39543,5.70388,6.52848,9.28302,7.51172,12.29687c8.2631.0717,17.02903.96788,25.56055.74023c11.92511-.3182,23.37275-2.86154,32.43554-8.26757c1.1191-.66755,2.2015-1.38,3.23829-2.15039-2.47294-2.42072,0-10.967272,0-15.554951c0-5.773318-.37605-8.938455-3.23829-19.750815s-4.61095-11.040144-5.88305-23.124504-5.374073-7.471821-7.600263-8.426051Z" fill="#a05a2c"/><path d="M235.64216,410.06888c5.40643,4.92927,14.62858,24.96361,32.27837,47.54213s43.72571,47.70043,76.16273,68.21169s71.2329,36.41121,108.91684,46.74625s74.25384,15.10504,109.87059,13.35576s70.27863-10.01724,103.82836-22.10162s65.98562-27.98432,94.76525-44.67975s53.90155-34.18537,71.07397-45.79263s26.39438-17.33125,35.29881-21.46535s17.49039-6.6781,23.8506-4.92834s10.4942,7.79174,12.24279,13.67476s1.11258,11.607-4.92968,25.4402-17.49023,35.77513-37.20668,58.03549-47.70036,44.83829-85.70229,65.98579-86.01977,40.86343-134.67488,53.26575-97.94495,17.49029-148.50818,13.9923-102.39705-15.58196-145.80519-37.3653-78.38802-53.26524-98.42281-80.77283-25.12276-51.03951-26.23594-72.66423s1.74881-41.34066,3.97486-56.28702s3.81604-25.12233,9.22248-20.19305Z" fill="#ffdb01"/><path d="M888.72461,434.43945c-4.02007-.22046-8.39582.26732-13.08399,1.29102c4.29627,9.99949,10.5321,20.10703,18.75,27.60351c8.04754,7.34107,17.97286,12.16994,25.2168,10.37891-.87947-15.91979,4.294284-22.78043-5.778707-31.84382-11.339897-10.203316-18.080923-7.04447-25.104103-7.42962Z" fill="#a05a2c"/></g></svg>
